<!-- <svg xmlns="http://www.w3.org/2000/svg" viewBox="0 0 640 640">!Font Awesome Free v7.2.0 by @fontawesome - https://fontawesome.com License - https://fontawesome.com/license/free Copyright 2026 Fonticons, Inc.<path fill='#848b93' d="M360 160L280 160C266.7 160 256 149.3 256 136C256 122.7 266.7 112 280 112L360 112C373.3 112 384 122.7 384 136C384 149.3 373.3 160 360 160zM360 208C397.1 208 427.6 180 431.6 144L448 144C456.8 144 464 151.2 464 160L464 512C464 520.8 456.8 528 448 528L192 528C183.2 528 176 520.8 176 512L176 160C176 151.2 183.2 144 192 144L208.4 144C212.4 180 242.9 208 280 208L360 208zM419.9 96C407 76.7 385 64 360 64L280 64C255 64 233 76.7 220.1 96L192 96C156.7 96 128 124.7 128 160L128 512C128 547.3 156.7 576 192 576L448 576C483.3 576 512 547.3 512 512L512 160C512 124.7 483.3 96 448 96L419.9 96z"/></svg> -->
<!-- <svg xmlns="http://www.w3.org/2000/svg" viewBox="0 0 640 640">!Font Awesome Free v7.2.0 by @fontawesome - https://fontawesome.com License - https://fontawesome.com/license/free Copyright 2026 Fonticons, Inc.<path fill='#848b93' d="M439.4 96L448 96C483.3 96 512 124.7 512 160L512 512C512 547.3 483.3 576 448 576L192 576C156.7 576 128 547.3 128 512L128 160C128 124.7 156.7 96 192 96L200.6 96C211.6 76.9 232.3 64 256 64L384 64C407.7 64 428.4 76.9 439.4 96zM376 176C389.3 176 400 165.3 400 152C400 138.7 389.3 128 376 128L264 128C250.7 128 240 138.7 240 152C240 165.3 250.7 176 264 176L376 176zM256 320C256 302.3 241.7 288 224 288C206.3 288 192 302.3 192 320C192 337.7 206.3 352 224 352C241.7 352 256 337.7 256 320zM288 320C288 333.3 298.7 344 312 344L424 344C437.3 344 448 333.3 448 320C448 306.7 437.3 296 424 296L312 296C298.7 296 288 306.7 288 320zM288 448C288 461.3 298.7 472 312 472L424 472C437.3 472 448 461.3 448 448C448 434.7 437.3 424 424 424L312 424C298.7 424 288 434.7 288 448zM224 480C241.7 480 256 465.7 256 448C256 430.3 241.7 416 224 416C206.3 416 192 430.3 192 448C192 465.7 206.3 480 224 480z"/></svg> -->
<svg xmlns="http://www.w3.org/2000/svg" viewBox="0 0 640 640"><!--!Font Awesome Free v7.2.0 by @fontawesome - https://fontawesome.com License - https://fontawesome.com/license/free Copyright 2026 Fonticons, Inc.--><path fill='#848b93' d="M256 144C256 117.5 277.5 96 304 96L336 96C362.5 96 384 117.5 384 144L384 496C384 522.5 362.5 544 336 544L304 544C277.5 544 256 522.5 256 496L256 144zM64 336C64 309.5 85.5 288 112 288L144 288C170.5 288 192 309.5 192 336L192 496C192 522.5 170.5 544 144 544L112 544C85.5 544 64 522.5 64 496L64 336zM496 160L528 160C554.5 160 576 181.5 576 208L576 496C576 522.5 554.5 544 528 544L496 544C469.5 544 448 522.5 448 496L448 208C448 181.5 469.5 160 496 160z"/></svg>