<!-- <svg xmlns="http://www.w3.org/2000/svg" viewBox="0 0 640 640">!Font Awesome Free v7.3.0 by @fontawesome - https://fontawesome.com License - https://fontawesome.com/license/free Copyright 2026 Fonticons, Inc.<path fill='#848b93' d="M267.7 576.9C267.7 576.9 267.7 576.9 267.7 576.9L229.9 603.6C222.6 608.8 213 609.4 205 605.3C197 601.2 192 593 192 584L192 512L160 512C107 512 64 469 64 416L64 192C64 139 107 96 160 96L480 96C533 96 576 139 576 192L576 416C576 469 533 512 480 512L359.6 512L267.7 576.9zM332 472.8C340.1 467.1 349.8 464 359.7 464L480 464C506.5 464 528 442.5 528 416L528 192C528 165.5 506.5 144 480 144L160 144C133.5 144 112 165.5 112 192L112 416C112 442.5 133.5 464 160 464L216 464C226.4 464 235.3 470.6 238.6 479.9C239.5 482.4 240 485.1 240 488L240 537.7C272.7 514.6 303.3 493 331.9 472.8z"/></svg> -->
<svg viewBox="0 0 24 24" fill="none" xmlns="http://www.w3.org/2000/svg" transform="rotate(0)matrix(-1, 0, 0, 1, 0, 0)"><g id="SVGRepo_bgCarrier" stroke-width="0"></g><g id="SVGRepo_tracerCarrier" stroke-linecap="round" stroke-linejoin="round"></g><g id="SVGRepo_iconCarrier"> <path d="M3 7.2C3 6.07989 3 5.51984 3.21799 5.09202C3.40973 4.71569 3.71569 4.40973 4.09202 4.21799C4.51984 4 5.0799 4 6.2 4H17.8C18.9201 4 19.4802 4 19.908 4.21799C20.2843 4.40973 20.5903 4.71569 20.782 5.09202C21 5.51984 21 6.0799 21 7.2V20L17.6757 18.3378C17.4237 18.2118 17.2977 18.1488 17.1656 18.1044C17.0484 18.065 16.9277 18.0365 16.8052 18.0193C16.6672 18 16.5263 18 16.2446 18H6.2C5.07989 18 4.51984 18 4.09202 17.782C3.71569 17.5903 3.40973 17.2843 3.21799 16.908C3 16.4802 3 15.9201 3 14.8V7.2Z" stroke="#848b93" stroke-width="3" stroke-linecap="round" stroke-linejoin="round"></path> </g></svg>