<!-- <svg xmlns="http://www.w3.org/2000/svg" width="40" height="40" viewBox="0 0 640 640">!Font Awesome Free v7.2.0 by @fontawesome - https://fontawesome.com License - https://fontawesome.com/license/free Copyright 2026 Fonticons, Inc.<path fill='#848b93' d="M197.8 100.3C208.7 107.9 211.3 122.9 203.7 133.7L147.7 213.7C143.6 219.5 137.2 223.2 130.1 223.8C123 224.4 116 222 111 217L71 177C61.7 167.6 61.7 152.4 71 143C80.3 133.6 95.6 133.7 105 143L124.8 162.8L164.4 106.2C172 95.3 187 92.7 197.8 100.3zM197.8 260.3C208.7 267.9 211.3 282.9 203.7 293.7L147.7 373.7C143.6 379.5 137.2 383.2 130.1 383.8C123 384.4 116 382 111 377L71 337C61.6 327.6 61.6 312.4 71 303.1C80.4 293.8 95.6 293.7 104.9 303.1L124.7 322.9L164.3 266.3C171.9 255.4 186.9 252.8 197.7 260.4zM288 160C288 142.3 302.3 128 320 128L544 128C561.7 128 576 142.3 576 160C576 177.7 561.7 192 544 192L320 192C302.3 192 288 177.7 288 160zM288 320C288 302.3 302.3 288 320 288L544 288C561.7 288 576 302.3 576 320C576 337.7 561.7 352 544 352L320 352C302.3 352 288 337.7 288 320zM224 480C224 462.3 238.3 448 256 448L544 448C561.7 448 576 462.3 576 480C576 497.7 561.7 512 544 512L256 512C238.3 512 224 497.7 224 480zM128 440C150.1 440 168 457.9 168 480C168 502.1 150.1 520 128 520C105.9 520 88 502.1 88 480C88 457.9 105.9 440 128 440z"/></svg> -->
<svg xmlns="http://www.w3.org/2000/svg" viewBox="0 0 640 640"><!--!Font Awesome Free v7.2.0 by @fontawesome - https://fontawesome.com License - https://fontawesome.com/license/free Copyright 2026 Fonticons, Inc.--><path fill='#848b93' d="M416 64C433.7 64 448 78.3 448 96L448 128L480 128C515.3 128 544 156.7 544 192L544 480C544 515.3 515.3 544 480 544L160 544C124.7 544 96 515.3 96 480L96 192C96 156.7 124.7 128 160 128L192 128L192 96C192 78.3 206.3 64 224 64C241.7 64 256 78.3 256 96L256 128L384 128L384 96C384 78.3 398.3 64 416 64zM438 225.7C427.3 217.9 412.3 220.3 404.5 231L285.1 395.2L233 343.1C223.6 333.7 208.4 333.7 199.1 343.1C189.8 352.5 189.7 367.7 199.1 377L271.1 449C276.1 454 283 456.5 289.9 456C296.8 455.5 303.3 451.9 307.4 446.2L443.3 259.2C451.1 248.5 448.7 233.5 438 225.7z"/></svg>
